<?xml version="1.0" encoding="UTF-8" standalone="no"?>
<svg
   xmlns:dc="http://purl.org/dc/elements/1.1/"
   xmlns:cc="http://creativecommons.org/ns#"
   xmlns:rdf="http://www.w3.org/1999/02/22-rdf-syntax-ns#"
   xmlns:svg="http://www.w3.org/2000/svg"
   xmlns="http://www.w3.org/2000/svg"
   xmlns:sodipodi="http://sodipodi.sourceforge.net/DTD/sodipodi-0.dtd"
   xmlns:inkscape="http://www.inkscape.org/namespaces/inkscape"
   width="192"
   height="192"
   fill="#225862"
   viewBox="0 0 256 256"
   version="1.1"
   id="svg12"
   sodipodi:docname="favicon.svg"
   inkscape:version="1.0.2 (1.0.2+r75+1)">
  <metadata
     id="metadata18">
    <rdf:RDF>
      <cc:Work
         rdf:about="">
        <dc:format>image/svg+xml</dc:format>
        <dc:type
           rdf:resource="http://purl.org/dc/dcmitype/StillImage" />
      </cc:Work>
    </rdf:RDF>
  </metadata>
  <defs
     id="defs16" />
  <sodipodi:namedview
     pagecolor="#ffffff"
     bordercolor="#666666"
     borderopacity="1"
     objecttolerance="10"
     gridtolerance="10"
     guidetolerance="10"
     inkscape:pageopacity="0"
     inkscape:pageshadow="2"
     inkscape:window-width="1920"
     inkscape:window-height="1002"
     id="namedview14"
     showgrid="false"
     inkscape:zoom="3.828125"
     inkscape:cx="96"
     inkscape:cy="96"
     inkscape:window-x="0"
     inkscape:window-y="28"
     inkscape:window-maximized="1"
     inkscape:current-layer="svg12" />
  <rect
     width="256"
     height="256"
     fill="none"
     id="rect2" />
  <path
     d="M128,64a24,24,0,0,1,48,0V88h24a23.9,23.9,0,0,1,24,24v16a96,96,0,0,1-192,0V88a24,24,0,0,1,48,0V64a24,24,0,0,1,48,0"
     opacity="0.2"
     id="path4"
     style="fill:#dfe4ea;opacity:1" />
  <path
     d="M128,104a24,24,0,0,1-48,0V64a24,24,0,0,1,48,0Z"
     fill="none"
     stroke="#225862"
     stroke-linecap="round"
     stroke-linejoin="round"
     stroke-width="16"
     id="path6" />
  <path
     d="M128,64a24,24,0,0,1,48,0V88"
     fill="none"
     stroke="#225862"
     stroke-linecap="round"
     stroke-linejoin="round"
     stroke-width="16"
     id="path8" />
  <path
     d="M128,176a40,40,0,0,1,40-40H152a23.9,23.9,0,0,1-24-24V96a8,8,0,0,1,8-8h64a23.9,23.9,0,0,1,24,24v16a96,96,0,0,1-192,0V88a24,24,0,0,1,48,0v16a24,24,0,0,1-48,0"
     fill="none"
     stroke="#225862"
     stroke-linecap="round"
     stroke-linejoin="round"
     stroke-width="16"
     id="path10" />
</svg>
